<?xml version="1.0"?>
<svg xmlns="http://www.w3.org/2000/svg" height="512px" viewBox="0 0 480 480" width="512px"><path d="m96 88c.003906-4.414062 3.585938-7.996094 8-8h272c4.414062.003906 7.996094 3.585938 8 8v8h16v-8c-.015625-13.25-10.75-23.984375-24-24h-104v-40c-.015625-13.25-10.75-23.984375-24-24h-16c-13.25.015625-23.984375 10.75-24 24v40h-104c-13.25.015625-23.984375 10.75-24 24v8h16zm128-64c.003906-4.414062 3.585938-7.996094 8-8h16c4.414062.003906 7.996094 3.585938 8 8v40h-32zm0 0" fill="#FFFFFF"/><path d="m424 376h-24v-40h-16v40h-288v-40h-16v40h-24c-13.25.015625-23.984375 10.75-24 24v8c.015625 13.25 10.75 23.984375 24 24h56v48h16v-48h224v48h16v-48h56c13.25-.015625 23.984375-10.75 24-24v-8c-.015625-13.25-10.75-23.984375-24-24zm8 32c-.003906 4.414062-3.585938 7.996094-8 8h-368c-4.414062-.003906-7.996094-3.585938-8-8v-8c.003906-4.414062 3.585938-7.996094 8-8h368c4.414062.003906 7.996094 3.585938 8 8zm0 0" fill="#FFFFFF"/><path d="m208 296v-160c-.015625-13.25-10.75-23.984375-24-24h-160c-13.25.015625-23.984375 10.75-24 24v160c.015625 13.25 10.75 23.984375 24 24h160c13.25-.015625 23.984375-10.75 24-24zm-192 0v-160c.003906-4.414062 3.585938-7.996094 8-8h160c4.414062.003906 7.996094 3.585938 8 8v160c-.003906 4.414062-3.585938 7.996094-8 8h-160c-4.414062-.003906-7.996094-3.585938-8-8zm0 0" fill="#FFFFFF"/><path d="m136 336v8c.007812 8.832031 7.167969 15.992188 16 16h168c13.25-.015625 23.984375-10.75 24-24v-160c-.015625-13.25-10.75-23.984375-24-24h-96v16h96c4.414062.003906 7.996094 3.585938 8 8v160c-.003906 4.414062-3.585938 7.996094-8 8h-168v-8zm0 0" fill="#FFFFFF"/><path d="m456 112h-160c-8.832031.007812-15.992188 7.167969-16 16v8h16v-8h160c4.414062.003906 7.996094 3.585938 8 8v160c-.003906 4.414062-3.585938 7.996094-8 8h-96v16h96c13.25-.015625 23.984375-10.75 24-24v-160c-.015625-13.25-10.75-23.984375-24-24zm0 0" fill="#FFFFFF"/><path d="m64 240v-64h-16v64c-8.832031.007812-15.992188 7.167969-16 16v16c.007812 8.832031 7.167969 15.992188 16 16h16c8.832031-.007812 15.992188-7.167969 16-16h56v-16h-56c-.007812-8.832031-7.167969-15.992188-16-16zm0 32h-16v-16h16zm0 0" fill="#FFFFFF"/><path d="m48 144h16v16h-16zm0 0" fill="#FFFFFF"/><path d="m152 256h16v16h-16zm0 0" fill="#FFFFFF"/><path d="m112 192v-16h-16v16c-8.832031.007812-15.992188 7.167969-16 16v16c.007812 8.832031 7.167969 15.992188 16 16h16c8.832031-.007812 15.992188-7.167969 16-16h8v-16h-8c-.007812-8.832031-7.167969-15.992188-16-16zm-16 32v-16h16l.011719 16zm0 0" fill="#FFFFFF"/><path d="m96 144h16v16h-16zm0 0" fill="#FFFFFF"/><path d="m152 208h16v16h-16zm0 0" fill="#FFFFFF"/><path d="m280 232c8.832031-.007812 15.992188-7.167969 16-16h16v-16h-16c-.007812-8.832031-7.167969-15.992188-16-16h-16c-8.832031.007812-15.992188 7.167969-16 16h-16v16h16c.007812 8.832031 7.167969 15.992188 16 16v64h16zm-16-32h16l.011719 16h-16.011719zm0 0" fill="#FFFFFF"/><path d="m264 312h16v16h-16zm0 0" fill="#FFFFFF"/><path d="m400 256h-8v16h8c.007812 8.832031 7.167969 15.992188 16 16h16c8.832031-.007812 15.992188-7.167969 16-16v-16c-.007812-8.832031-7.167969-15.992188-16-16v-48c8.832031-.007812 15.992188-7.167969 16-16v-16c-.007812-8.832031-7.167969-15.992188-16-16h-16c-8.832031.007812-15.992188 7.167969-16 16h-8v16h8c.007812 8.832031 7.167969 15.992188 16 16v48c-8.832031.007812-15.992188 7.167969-16 16zm15.988281-96h16.011719v16h-16zm16.011719 112h-16l-.011719-16h16.011719zm0 0" fill="#FFFFFF"/><path d="m360 256h16v16h-16zm0 0" fill="#FFFFFF"/><path d="m360 160h16v16h-16zm0 0" fill="#FFFFFF"/></svg>
