<?xml version="1.0" encoding="iso-8859-1"?>
<!-- Generator: Adobe Illustrator 19.0.0, SVG Export Plug-In . SVG Version: 6.00 Build 0)  -->
<svg version="1.1" id="Capa_1" xmlns="http://www.w3.org/2000/svg" xmlns:xlink="http://www.w3.org/1999/xlink" x="0px" y="0px"
	 viewBox="0 0 480 480" style="enable-background:new 0 0 480 480;" xml:space="preserve">
<g>
	<g>
		<rect x="95.998" y="32" width="16" height="16"/>
	</g>
</g>
<g>
	<g>
		<rect x="127.998" y="32" width="16" height="16"/>
	</g>
</g>
<g>
	<g>
		<rect x="159.998" y="32" width="16" height="16"/>
	</g>
</g>
<g>
	<g>
		<rect x="295.998" y="32" width="152" height="16"/>
	</g>
</g>
<g>
	<g>
		<rect x="319.998" y="120" width="128" height="16"/>
	</g>
</g>
<g>
	<g>
		<rect x="383.998" y="152" width="64" height="16"/>
	</g>
</g>
<g>
	<g>
		<rect x="383.998" y="184" width="64" height="16"/>
	</g>
</g>
<g>
	<g>
		<rect x="383.998" y="216" width="64" height="16"/>
	</g>
</g>
<g>
	<g>
		<rect x="319.998" y="248" width="128" height="16"/>
	</g>
</g>
<g>
	<g>
		<rect x="319.998" y="376" width="128" height="16"/>
	</g>
</g>
<g>
	<g>
		<rect x="383.998" y="280" width="64" height="16"/>
	</g>
</g>
<g>
	<g>
		<rect x="383.998" y="312" width="64" height="16"/>
	</g>
</g>
<g>
	<g>
		<rect x="383.998" y="344" width="64" height="16"/>
	</g>
</g>
<g>
	<g>
		<rect x="383.998" y="408" width="64" height="16"/>
	</g>
</g>
<g>
	<g>
		<path d="M471.998,0h-400c-4.424,0-8,3.584-8,8v64v48h-56c-3.08,0-5.872,1.76-7.208,4.536c-1.328,2.768-0.96,6.064,0.96,8.464
			l30.248,37.808V208c0,19.312,13.768,35.472,32,39.192V296h-56c-3.08,0-5.872,1.76-7.208,4.536c-1.328,2.768-0.96,6.064,0.96,8.464
			l30.248,37.808V384c0,19.312,13.768,35.472,32,39.192V472c0,4.416,3.576,8,8,8h368c22.056,0,40-17.944,40-40V72V8
			C479.998,3.584,476.422,0,471.998,0z M47.998,208v-40c0-1.816-0.616-3.576-1.752-5l-21.6-27h47.352h176c13.232,0,24,10.768,24,24
			v48c0,13.232-10.768,24-24,24h-176C58.766,232,47.998,221.232,47.998,208z M47.998,384v-40c0-1.816-0.616-3.576-1.752-5l-21.6-27
			h47.352h176c13.232,0,24,10.768,24,24v48c0,13.232-10.768,24-24,24h-176C58.766,408,47.998,397.232,47.998,384z M463.998,440
			c0,13.232-10.768,24-24,24h-360v-40h168c22.056,0,40-17.944,40-40v-48c0-22.056-17.944-40-40-40h-168v-48h168
			c22.056,0,40-17.944,40-40v-48c0-22.056-17.944-40-40-40h-168V80h384V440z M463.998,64h-384V16h384V64z"/>
	</g>
</g>
<g>
	<g>
		<rect x="71.998" y="160" width="64" height="16"/>
	</g>
</g>
<g>
	<g>
		<rect x="151.998" y="160" width="40" height="16"/>
	</g>
</g>
<g>
	<g>
		<rect x="207.998" y="160" width="40" height="16"/>
	</g>
</g>
<g>
	<g>
		<rect x="71.998" y="192" width="40" height="16"/>
	</g>
</g>
<g>
	<g>
		<rect x="127.998" y="192" width="120" height="16"/>
	</g>
</g>
<g>
	<g>
		<rect x="183.998" y="368" width="64" height="16"/>
	</g>
</g>
<g>
	<g>
		<rect x="127.998" y="368" width="40" height="16"/>
	</g>
</g>
<g>
	<g>
		<rect x="71.998" y="368" width="40" height="16"/>
	</g>
</g>
<g>
	<g>
		<rect x="207.998" y="336" width="40" height="16"/>
	</g>
</g>
<g>
	<g>
		<rect x="71.998" y="336" width="120" height="16"/>
	</g>
</g>
<g>
</g>
<g>
</g>
<g>
</g>
<g>
</g>
<g>
</g>
<g>
</g>
<g>
</g>
<g>
</g>
<g>
</g>
<g>
</g>
<g>
</g>
<g>
</g>
<g>
</g>
<g>
</g>
<g>
</g>
</svg>
